<svg width="48" height="48" viewBox="0 0 48 48" fill="none" xmlns="http://www.w3.org/2000/svg">
<path d="M19 2C14.0531 2 10 6.05312 10 11C10 13.8853 11.4669 16.3497 13.5977 18C11.4669 19.6503 10 22.1147 10 25C10 27.8853 11.4669 30.3497 13.5977 32C11.4669 33.6503 10 36.1147 10 39C10 43.9469 14.0531 48 19 48C23.9469 48 28 43.9469 28 39V32V20H33C37.9469 20 42 15.9469 42 11C42 6.05312 37.9469 2 33 2H26H19ZM19 6H24V16H19C16.2149 16 14 13.7851 14 11C14 8.21488 16.2149 6 19 6ZM28 6H33C35.7851 6 38 8.21488 38 11C38 13.7851 35.7851 16 33 16H28V6ZM19 20H24V30H19C16.2149 30 14 27.7851 14 25C14 22.2149 16.2149 20 19 20ZM34 20C32.4087 20 30.8826 20.6321 29.7574 21.7574C28.6321 22.8826 28 24.4087 28 26C28 27.5913 28.6321 29.1174 29.7574 30.2426C30.8826 31.3679 32.4087 32 34 32C35.5913 32 37.1174 31.3679 38.2426 30.2426C39.3679 29.1174 40 27.5913 40 26C40 24.4087 39.3679 22.8826 38.2426 21.7574C37.1174 20.6321 35.5913 20 34 20ZM19 34H24V39C24 41.7851 21.7851 44 19 44C16.2149 44 14 41.7851 14 39C14 36.2149 16.2149 34 19 34Z" fill="#4BB543"/>
</svg>
