<svg width="381" height="303" viewBox="0 0 381 303" fill="none" xmlns="http://www.w3.org/2000/svg">
<g clip-path="url(#clip0_1917_1142)">
<path d="M41.9454 39.5979C41.2281 18.9969 57.2789 0 78.9746 0H301.288C322.984 0 339.035 18.9969 338.317 39.5979C337.628 59.3873 338.523 85.022 344.974 105.924C351.447 126.89 362.361 140.143 380.235 141.846V161.154C362.361 162.857 351.447 176.11 344.974 197.076C338.523 217.978 337.628 243.613 338.317 263.403C339.035 284.003 322.984 303 301.288 303H78.9746C57.2789 303 41.228 284.003 41.9462 263.403C42.6346 243.613 41.7397 217.978 35.2876 197.076C28.8162 176.11 17.8755 162.857 0 161.154V141.846C17.8748 140.143 28.8162 126.89 35.2876 105.924C41.7397 85.022 42.6346 59.3873 41.9454 39.5979Z" fill="url(#paint0_linear_1917_1142)"/>
<g filter="url(#filter0_d_1917_1142)">
<path d="M198.363 232.045C233.488 232.045 254.654 214.847 254.654 186.48C254.654 165.037 239.551 149.514 217.127 147.057V146.163C233.602 143.483 246.531 128.183 246.531 111.096C246.531 86.7499 227.31 70.8906 198.02 70.8906H132.117V232.045H198.363ZM157.746 91.3283H191.842C210.377 91.3283 220.902 99.5924 220.902 114.558C220.902 130.528 208.66 139.462 186.464 139.462H157.746V91.3283ZM157.746 211.608V158.56H191.612C215.868 158.56 228.453 167.494 228.453 184.917C228.453 202.338 216.212 211.608 193.1 211.608H157.746Z" fill="url(#paint1_linear_1917_1142)"/>
<path d="M198.363 232.045C233.488 232.045 254.654 214.847 254.654 186.48C254.654 165.037 239.551 149.514 217.127 147.057V146.163C233.602 143.483 246.531 128.183 246.531 111.096C246.531 86.7499 227.31 70.8906 198.02 70.8906H132.117V232.045H198.363ZM157.746 91.3283H191.842C210.377 91.3283 220.902 99.5924 220.902 114.558C220.902 130.528 208.66 139.462 186.464 139.462H157.746V91.3283ZM157.746 211.608V158.56H191.612C215.868 158.56 228.453 167.494 228.453 184.917C228.453 202.338 216.212 211.608 193.1 211.608H157.746Z" stroke="white" stroke-width="0.742647"/>
</g>
</g>
<defs>
<filter id="filter0_d_1917_1142" x="119.864" y="61.6078" width="147.042" height="185.661" filterUnits="userSpaceOnUse" color-interpolation-filters="sRGB">
<feFlood flood-opacity="0" result="BackgroundImageFix"/>
<feColorMatrix in="SourceAlpha" type="matrix" values="0 0 0 0 0 0 0 0 0 0 0 0 0 0 0 0 0 0 127 0" result="hardAlpha"/>
<feOffset dy="2.97059"/>
<feGaussianBlur stdDeviation="5.94118"/>
<feColorMatrix type="matrix" values="0 0 0 0 0 0 0 0 0 0 0 0 0 0 0 0 0 0 0.15 0"/>
<feBlend mode="normal" in2="BackgroundImageFix" result="effect1_dropShadow_1917_1142"/>
<feBlend mode="normal" in="SourceGraphic" in2="effect1_dropShadow_1917_1142" result="shape"/>
</filter>
<linearGradient id="paint0_linear_1917_1142" x1="56.4998" y1="8.01911" x2="388.761" y2="271.768" gradientUnits="userSpaceOnUse">
<stop stop-color="#9013FE"/>
<stop offset="1" stop-color="#6610F2"/>
</linearGradient>
<linearGradient id="paint1_linear_1917_1142" x1="143.708" y1="81.4979" x2="217.977" y2="207.103" gradientUnits="userSpaceOnUse">
<stop stop-color="white"/>
<stop offset="1" stop-color="#F1E5FC"/>
</linearGradient>
<clipPath id="clip0_1917_1142">
<rect width="380.235" height="303" fill="white"/>
</clipPath>
</defs>
</svg>
