<svg width="75" height="113" viewBox="0 0 75 113" fill="none" xmlns="http://www.w3.org/2000/svg">
<path d="M37.5 56.2495C37.5 45.9998 45.8091 37.6904 56.0591 37.6904C66.3089 37.6904 74.6182 45.9998 74.6182 56.2495C74.6182 66.4995 66.3089 74.8087 56.0591 74.8087C45.8091 74.8087 37.5 66.4995 37.5 56.2495Z" fill="#1ABCFE"/>
<path d="M0.382812 93.3687C0.382812 83.1189 8.692 74.8096 18.9419 74.8096H37.501V93.3687C37.501 103.619 29.1919 111.928 18.9419 111.928C8.692 111.928 0.382812 103.619 0.382812 93.3687Z" fill="#0ACF83"/>
<path d="M37.5 0.573242V37.6914H56.0591C66.3091 37.6914 74.6182 29.3822 74.6182 19.1323C74.6182 8.88245 66.3091 0.573242 56.0591 0.573242H37.5Z" fill="#FF7262"/>
<path d="M0.382812 19.1324C0.382812 29.3823 8.692 37.6914 18.9419 37.6914H37.501V0.573242H18.9419C8.692 0.573242 0.382812 8.88243 0.382812 19.1324Z" fill="#F24E1E"/>
<path d="M0.382812 56.2495C0.382812 66.4995 8.692 74.8087 18.9419 74.8087H37.501V37.6904H18.9419C8.692 37.6904 0.382812 45.9998 0.382812 56.2495Z" fill="#A259FF"/>
</svg>
