<svg width="300" height="300" viewBox="0 0 300 300" fill="none" xmlns="http://www.w3.org/2000/svg">
<g clip-path="url(#clip0_1917_1129)">
<path d="M300 0H0V300H300V0Z" fill="#F7DF1E"/>
<path d="M201.526 234.376C207.568 244.242 215.43 251.495 229.335 251.495C241.016 251.495 248.478 245.657 248.478 237.59C248.478 227.923 240.811 224.5 227.954 218.876L220.906 215.852C200.564 207.185 187.049 196.328 187.049 173.376C187.049 152.233 203.159 136.138 228.335 136.138C246.259 136.138 259.145 142.376 268.43 158.709L246.478 172.804C241.645 164.138 236.43 160.723 228.335 160.723C220.078 160.723 214.845 165.962 214.845 172.804C214.845 181.262 220.083 184.685 232.178 189.923L239.226 192.942C263.178 203.214 276.702 213.685 276.702 237.228C276.702 262.609 256.764 276.514 229.987 276.514C203.806 276.514 186.892 264.038 178.616 247.685L201.526 234.376ZM101.94 236.819C106.368 244.676 110.397 251.319 120.083 251.319C129.345 251.319 135.187 247.695 135.187 233.604V137.747H163.378V233.985C163.378 263.176 146.264 276.461 121.283 276.461C98.7112 276.461 85.6398 264.781 78.9922 250.711L101.94 236.819Z" fill="black"/>
</g>
<defs>
<clipPath id="clip0_1917_1129">
<rect width="300" height="300" fill="white"/>
</clipPath>
</defs>
</svg>
