<svg width="800" height="800" viewBox="0 0 800 800" fill="none" xmlns="http://www.w3.org/2000/svg">
<g clip-path="url(#clip0_1920_1154)">
<path d="M400 800C620.914 800 800 620.914 800 400C800 179.086 620.914 0 400 0C179.086 0 0 179.086 0 400C0 620.914 179.086 800 400 800Z" fill="#13AA52"/>
<path d="M506.923 351.125C481.657 239.617 421.946 202.953 415.516 188.945C408.485 179.063 401.36 161.484 401.36 161.484C401.243 161.187 401.056 160.664 400.837 160.156C400.11 170.039 399.735 173.852 390.391 183.82C375.923 195.133 301.688 257.422 295.649 384.109C290.016 502.266 381.001 572.672 393.306 581.648L394.704 582.641V582.555C394.782 583.148 398.61 610.68 401.298 639.852H410.938C413.2 619.231 416.591 598.75 421.095 578.5L421.876 577.992C427.38 574.046 432.627 569.753 437.587 565.141L438.149 564.633C464.306 540.469 511.329 484.578 510.868 395.469C510.771 380.604 509.451 365.773 506.923 351.125ZM400.274 514.937C400.274 514.937 400.274 349.219 405.743 349.25C410.009 349.25 415.532 563.008 415.532 563.008C407.938 562.094 400.274 527.828 400.274 514.937Z" fill="white"/>
</g>
<defs>
<clipPath id="clip0_1920_1154">
<rect width="800" height="800" fill="white"/>
</clipPath>
</defs>
</svg>
