<svg width="264" height="301" viewBox="0 0 264 301" fill="none" xmlns="http://www.w3.org/2000/svg">
<g clip-path="url(#clip0_1917_1145)">
<path d="M131.686 298.648C127.747 298.648 123.75 297.59 120.281 295.591L84.0082 274.133C78.5996 271.076 81.2451 270.018 83.0088 269.43C90.2398 266.902 91.7096 266.373 99.4109 261.964C100.234 261.494 101.292 261.67 102.115 262.199L129.981 278.719C130.981 279.307 132.392 279.307 133.332 278.719L241.916 216.05C242.915 215.462 243.562 214.286 243.562 213.11V87.772C243.562 86.5374 242.915 85.4204 241.857 84.7737L133.332 22.1634C132.333 21.5755 130.981 21.5755 129.981 22.1634L21.5154 84.8325C20.4572 85.4204 19.8105 86.5962 19.8105 87.8308V213.11C19.8105 214.286 20.4572 215.462 21.5154 215.991L51.2627 233.157C67.4297 241.211 77.3063 231.746 77.3063 222.164V98.4716C77.3063 96.7079 78.7172 95.3558 80.4809 95.3558H94.2375C95.9424 95.3558 97.4121 96.7079 97.4121 98.4716V222.223C97.4121 243.739 85.6543 256.085 65.2545 256.085C58.9641 256.085 54.0258 256.085 40.2691 249.266L11.8152 232.863C4.76055 228.807 0.410156 221.223 0.410156 213.051V87.772C0.410156 79.6591 4.76055 72.0165 11.8152 67.9601L120.281 5.29092C127.159 1.41084 136.272 1.41084 143.091 5.29092L251.675 68.0188C258.729 72.0753 263.08 79.6591 263.08 87.8308V213.11C263.08 221.223 258.729 228.807 251.675 232.922L143.091 295.591C139.623 297.59 135.684 298.648 131.686 298.648ZM219.341 175.133C219.341 151.676 203.468 145.444 170.134 141.035C136.389 136.567 132.979 134.274 132.979 126.396C132.979 119.871 135.86 111.17 160.846 111.17C183.127 111.17 191.357 115.991 194.767 131.041C195.061 132.452 196.354 133.51 197.824 133.51H211.933C212.815 133.51 213.638 133.157 214.226 132.51C214.814 131.864 215.108 130.982 215.049 130.1C212.874 104.174 195.649 92.1224 160.846 92.1224C129.864 92.1224 111.404 105.174 111.404 127.102C111.404 150.853 129.805 157.437 159.493 160.376C195.061 163.845 197.824 169.077 197.824 176.073C197.824 188.184 188.065 193.357 165.196 193.357C136.448 193.357 130.158 186.126 128.041 171.84C127.806 170.312 126.513 169.195 124.925 169.195H110.875C109.111 169.195 107.759 170.606 107.759 172.311C107.759 190.594 117.694 212.405 165.255 212.405C199.587 212.346 219.341 198.766 219.341 175.133Z" fill="black"/>
</g>
<defs>
<clipPath id="clip0_1917_1145">
<rect width="263.375" height="301" fill="white"/>
</clipPath>
</defs>
</svg>
