<svg width="22" height="21" viewBox="0 0 22 21" fill="none" xmlns="http://www.w3.org/2000/svg">
<g clip-path="url(#clip0_1919_1148)">
<path d="M11 12.1299C12.1046 12.1299 13 11.2345 13 10.1299C13 9.02531 12.1046 8.12988 11 8.12988C9.89543 8.12988 9 9.02531 9 10.1299C9 11.2345 9.89543 12.1299 11 12.1299Z" fill="#087EA4"/>
<path d="M11 14.6299C16.5228 14.6299 21 12.6152 21 10.1299C21 7.6446 16.5228 5.62988 11 5.62988C5.47715 5.62988 1 7.6446 1 10.1299C1 12.6152 5.47715 14.6299 11 14.6299Z" stroke="#087EA4"/>
<path d="M7.10421 12.38C9.86563 17.1629 13.849 20.0329 16.0013 18.7902C18.1536 17.5476 17.6599 12.6629 14.8984 7.87998C12.137 3.09705 8.15364 0.227086 6.00132 1.46973C3.84901 2.71237 4.34279 7.59705 7.10421 12.38Z" stroke="#087EA4"/>
<path d="M7.10421 7.87998C4.34278 12.6629 3.84901 17.5476 6.00132 18.7902C8.15364 20.0329 12.137 17.1629 14.8984 12.38C17.6599 7.59705 18.1536 2.71237 16.0013 1.46973C13.849 0.227086 9.86563 3.09705 7.10421 7.87998Z" stroke="#087EA4"/>
</g>
<defs>
<clipPath id="clip0_1919_1148">
<rect width="22" height="20.27" fill="white"/>
</clipPath>
</defs>
</svg>
