<svg width="300" height="300" viewBox="0 0 300 300" fill="none" xmlns="http://www.w3.org/2000/svg">
<g clip-path="url(#clip0_1917_1138)">
<path d="M270.703 0H29.2969C13.1167 0 0 13.1167 0 29.2969V270.703C0 286.883 13.1167 300 29.2969 300H270.703C286.883 300 300 286.883 300 270.703V29.2969C300 13.1167 286.883 0 270.703 0Z" fill="#3178C6"/>
<path d="M270.703 0H29.2969C13.1167 0 0 13.1167 0 29.2969V270.703C0 286.883 13.1167 300 29.2969 300H270.703C286.883 300 300 286.883 300 270.703V29.2969C300 13.1167 286.883 0 270.703 0Z" fill="#3178C6"/>
<path fill-rule="evenodd" clip-rule="evenodd" d="M185.706 238.725V268.058C190.475 270.502 196.114 272.335 202.625 273.557C209.136 274.779 215.998 275.391 223.212 275.391C230.243 275.391 236.921 274.719 243.249 273.374C249.577 272.03 255.125 269.814 259.893 266.728C264.662 263.643 268.437 259.609 271.218 254.629C274 249.648 275.391 243.492 275.391 236.159C275.391 230.842 274.596 226.182 273.006 222.18C271.417 218.177 269.125 214.618 266.129 211.501C263.133 208.385 259.542 205.588 255.354 203.113C251.166 200.638 246.444 198.301 241.186 196.102C237.335 194.512 233.88 192.97 230.824 191.473C227.767 189.975 225.169 188.447 223.029 186.889C220.889 185.331 219.238 183.681 218.077 181.939C216.916 180.197 216.335 178.227 216.335 176.027C216.335 174.011 216.854 172.192 217.894 170.573C218.933 168.953 220.4 167.563 222.295 166.402C224.191 165.241 226.513 164.34 229.264 163.698C232.016 163.056 235.072 162.736 238.435 162.736C240.88 162.736 243.463 162.919 246.183 163.286C248.904 163.652 251.64 164.218 254.391 164.981C257.142 165.745 259.816 166.708 262.415 167.869C265.013 169.03 267.413 170.374 269.613 171.902V144.495C265.151 142.784 260.275 141.516 254.987 140.691C249.699 139.866 243.631 139.453 236.784 139.453C229.815 139.453 223.212 140.202 216.977 141.699C210.741 143.196 205.254 145.533 200.516 148.711C195.778 151.889 192.034 155.937 189.283 160.857C186.532 165.776 185.156 171.657 185.156 178.502C185.156 187.24 187.678 194.696 192.722 200.868C197.765 207.04 205.422 212.265 215.693 216.543C219.728 218.193 223.488 219.812 226.972 221.401C230.457 222.99 233.468 224.64 236.004 226.351C238.542 228.062 240.544 229.925 242.012 231.942C243.479 233.958 244.212 236.25 244.212 238.817C244.212 240.711 243.754 242.468 242.837 244.087C241.92 245.707 240.529 247.112 238.664 248.304C236.8 249.496 234.476 250.427 231.695 251.099C228.913 251.772 225.658 252.108 221.929 252.108C215.571 252.108 209.274 250.993 203.038 248.762C196.802 246.532 191.025 243.186 185.706 238.725ZM136.395 166.454H174.023V142.383H69.1406V166.454H106.586V273.633H136.395V166.454Z" fill="white"/>
</g>
<defs>
<clipPath id="clip0_1917_1138">
<rect width="300" height="300" fill="white"/>
</clipPath>
</defs>
</svg>
